# xmcd
#
# Track frame offsets:
#	150
#	18409
#	35512
#	50778
#	63159
#	74844
#	90086
#	106098
#	127365
#	151635
#	180522
#	197661
#	213600
#	227520
#
# Disc length: 3716 seconds
#
# Revision: 2
# Processed by: cddbd v1.5.2PL0 Copyright (c) Steve Scherf et al.
# Submitted via: audiograbber 1.83.01
#
DISCID=bc0e820e
DTITLE=Pete Townshend - Empty Glass
DYEAR=1980
DGENRE=Rock
TTITLE0=Rough Boys
TTITLE1=I Am An Animal
TTITLE2=And I Moved
TTITLE3=Let My Love Open The Door
TTITLE4=Jools And Jim
TTITLE5=Keep On Working
TTITLE6=Cat's In The Cupboard
TTITLE7=A Little Is Enough
TTITLE8=Empty Glass
TTITLE9=Gonna Get Ya
TTITLE10=I Am An Animal (Alternate Vocal)
TTITLE11=Keep On Working (Alternate Vocal)
TTITLE12=And I Moved (Alternate Vocal)
TTITLE13=Gonna Get Ya (Long Version)
EXTD=
EXTT0=
EXTT1=
EXTT2=
EXTT3=
EXTT4=
EXTT5=
EXTT6=
EXTT7=
EXTT8=
EXTT9=
EXTT10=
EXTT11=
EXTT12=
EXTT13=
PLAYORDER=
